# xmcd CD database file
#
# Track frame offsets:
#	225
#	50151
#	66055
#	75551
#	90639
#	96409
#	124993
#	132135
#	141694
#	152468
#	176666
#	183709
#	187443
#	196869
#	201839
#	206817
#	212265
#
# Disc length: 3071 seconds
#
# Revision: 0
# Processed by: cddbd v1.5.1PL0 Copyright (c) Steve Scherf et al.
# Submitted via: CDex 1.40Release
#
DISCID=0a0bfc11
DTITLE=loren mazzacane connors - the daggett years
DYEAR=1990
DGENRE=Blues
TTITLE0=track1
TTITLE1=track2
TTITLE2=track3
TTITLE3=track4
TTITLE4=track5
TTITLE5=track6
TTITLE6=track7
TTITLE7=track8
TTITLE8=track9
TTITLE9=track10
TTITLE10=track11
TTITLE11=track12
TTITLE12=track13
TTITLE13=track14
TTITLE14=track15
TTITLE15=track16
TTITLE16=track17
EXTD=YEAR: 1990 ID3G: 0
EXTT0=
EXTT1=
EXTT2=
EXTT3=
EXTT4=
EXTT5=
EXTT6=
EXTT7=
EXTT8=
EXTT9=
EXTT10=
EXTT11=
EXTT12=
EXTT13=
EXTT14=
EXTT15=
EXTT16=
PLAYORDER=
